<?xml version="1.0" standalone="no"?>
<!DOCTYPE svg PUBLIC "-//W3C//DTD SVG 20010904//EN"
 "http://www.w3.org/TR/2001/REC-SVG-20010904/DTD/svg10.dtd">
<svg version="1.0" xmlns="http://www.w3.org/2000/svg"
 width="300.000000pt" height="300.000000pt" viewBox="0 0 300.000000 300.000000"
 preserveAspectRatio="xMidYMid meet">
<metadata>
Created by potrace 1.14, written by Peter Selinger 2001-2017
</metadata>
<g transform="translate(0.000000,300.000000) scale(0.100000,-0.100000)"
fill="#000000" stroke="none">
<path d="M1365 2973 c-37 -3 -128 -17 -182 -27 -38 -8 -178 -48 -188 -54 -5
-4 -16 -7 -23 -8 -22 -4 -201 -94 -260 -131 -316 -200 -558 -537 -640 -888
-33 -142 -33 -142 -39 -295 -8 -203 16 -363 81 -550 26 -73 97 -223 109 -228
4 -2 7 -8 7 -13 0 -13 71 -119 123 -184 22 -27 78 -87 124 -131 201 -195 450
-326 733 -384 114 -24 342 -34 440 -20 30 4 75 11 100 15 64 9 210 51 288 82
67 27 243 119 252 132 3 4 12 10 20 13 34 14 184 144 257 223 524 572 514
1452 -25 2004 -75 77 -221 201 -236 201 -3 0 -25 14 -50 31 -123 82 -360 172
-516 195 -19 3 -43 7 -53 10 -21 6 -264 11 -322 7z"/>
</g>
</svg>
